<svg width="80" height="80" viewBox="0 0 80 80" fill="none" xmlns="http://www.w3.org/2000/svg">
<rect x="16" y="24" width="42" height="38" rx="4" fill="#E4A910"/>
<rect x="22.1787" y="18" width="41.8206" height="37.7143" rx="4" fill="#FFC906"/>
<path d="M52.8364 34.9868C52.7216 34.9635 52.605 34.9009 52.5115 34.8128C52.4319 34.7378 52.3832 34.6565 49.3634 29.5567C47.6765 26.7079 46.2352 24.274 46.1606 24.1483C46.0317 23.931 46.0243 23.9149 46.0096 23.8231C45.9502 23.4508 46.1715 23.108 46.5297 23.0176C46.5933 23.0014 47.2219 22.9996 52.9962 23.0001C58.5913 23.0002 59.4014 23.0044 59.465 23.0171C59.5766 23.0426 59.6902 23.1044 59.7826 23.1893C59.9632 23.3554 60.0409 23.6281 59.979 23.8792C59.9625 23.9463 53.5899 34.7052 53.5212 34.7821C53.4592 34.8514 53.3338 34.931 53.2328 34.9652C53.1259 35.0016 52.9536 35.0105 52.8364 34.9868ZM53.1316 32.3182C53.2167 32.1762 53.2209 32.169 53.265 32.091C53.2811 32.0625 53.2983 32.0339 53.3033 32.0277C53.3082 32.0215 53.3618 31.9322 53.4223 31.8293C53.6667 31.4139 53.7136 31.335 53.7325 31.3079C53.7434 31.2922 53.7612 31.2618 53.7722 31.24C53.7929 31.1983 53.7942 31.1961 53.864 31.0878C53.888 31.0505 53.9077 31.0158 53.9077 31.0105C53.9077 31.0053 53.926 30.9741 53.9484 30.9421C53.9708 30.9097 53.9891 30.8768 53.9891 30.8689C53.9891 30.8614 53.9931 30.8544 53.9979 30.8544C54.0027 30.8544 54.0141 30.8378 54.0231 30.8176C54.0322 30.797 54.0591 30.7501 54.083 30.7128C54.1068 30.6751 54.1497 30.6039 54.1783 30.5541C54.2069 30.5042 54.2755 30.3878 54.3307 30.2954C54.3859 30.203 54.4311 30.1226 54.4311 30.1169C54.4311 30.1112 54.4364 30.1059 54.4427 30.1059C54.4491 30.1059 54.4544 30.0985 54.4544 30.0888C54.4544 30.0735 54.285 30.0717 52.9999 30.0717H51.5453L51.574 30.1199C51.5898 30.1462 51.6483 30.2446 51.7041 30.3381C51.7599 30.4316 51.8276 30.5464 51.8545 30.5931C51.8815 30.6398 51.9305 30.723 51.9634 30.7778C51.9963 30.8326 52.0232 30.8824 52.0232 30.8883C52.0232 30.8944 52.0273 30.8993 52.0323 30.8993C52.0373 30.8993 52.0479 30.9138 52.0559 30.9309C52.0717 30.9651 52.1045 31.0212 52.1877 31.1572C52.2174 31.2057 52.2547 31.2684 52.2707 31.2964C52.2867 31.3244 52.335 31.4061 52.378 31.4777C52.4603 31.6147 52.4778 31.6442 52.526 31.7271C52.6306 31.907 52.6955 32.0163 52.7455 32.0971C52.7769 32.1478 52.8026 32.1925 52.8026 32.1964C52.8026 32.2007 52.8306 32.248 52.8648 32.3024C52.8991 32.357 52.9395 32.4245 52.9546 32.4526C53.0008 32.538 53.0022 32.5387 53.0288 32.492C53.0419 32.4688 53.0882 32.3906 53.1316 32.3182ZM55.2729 28.7152C55.2767 28.7047 55.2944 28.6714 55.3121 28.6424C55.4201 28.4644 55.5193 28.2974 55.5229 28.2876C55.527 28.2762 55.5561 28.2272 55.7306 27.936C55.7755 27.8612 55.8288 27.7707 55.849 27.7348C55.8693 27.6988 55.8988 27.6511 55.9146 27.6284C55.9304 27.6056 55.9433 27.5802 55.9433 27.5717C55.9433 27.5634 55.9486 27.5564 55.955 27.5564C55.9613 27.5564 55.9666 27.5515 55.9666 27.5454C55.9666 27.5393 55.9842 27.5072 56.0057 27.4746C56.0273 27.4417 56.0614 27.383 56.0815 27.3441L56.1181 27.2732H53.0054C51.2934 27.2732 49.8946 27.2775 49.8971 27.2815C49.8995 27.2863 49.9132 27.3131 49.9275 27.341C49.9417 27.3691 49.9766 27.4277 50.0049 27.4714C50.0332 27.5152 50.0566 27.5547 50.0569 27.5597C50.0572 27.5646 50.0757 27.597 50.0981 27.6308C50.1205 27.665 50.1388 27.6952 50.1388 27.698C50.1388 27.7024 50.1783 27.7684 50.2265 27.8479C50.3188 28.0005 50.3221 28.006 50.3687 28.0882C50.3848 28.1167 50.4071 28.1529 50.4182 28.1684C50.4292 28.1842 50.4537 28.2248 50.4725 28.2591C50.5167 28.3397 50.5371 28.3741 50.553 28.3951C50.5601 28.4048 50.5829 28.4428 50.6036 28.4801C50.6243 28.5178 50.6672 28.5902 50.699 28.6416L50.7569 28.7352H53.0114C55.1482 28.7352 55.2663 28.735 55.2729 28.7152ZM56.9612 25.8589C56.9863 25.8168 57.0136 25.7757 57.0218 25.7674C57.03 25.7591 57.0367 25.7477 57.0367 25.7415C57.0367 25.7319 57.1535 25.5322 57.238 25.3973C57.2623 25.3583 57.2887 25.3126 57.3556 25.1932C57.3625 25.1805 57.3711 25.1682 57.3747 25.1652C57.3822 25.1586 57.5352 24.8991 57.5535 24.862C57.5604 24.8475 57.5699 24.8366 57.5747 24.8366C57.5795 24.8366 57.5835 24.83 57.5836 24.8221C57.5838 24.8147 57.6126 24.762 57.6476 24.706C57.6827 24.6499 57.7199 24.5861 57.7302 24.5643C57.7405 24.5423 57.7582 24.5118 57.7696 24.4962C57.7809 24.4804 57.804 24.4437 57.8209 24.414L57.8517 24.36H53.0059H48.16L48.1809 24.3968C48.1924 24.4174 48.2076 24.4411 48.2148 24.4506C48.222 24.4603 48.2435 24.4956 48.2626 24.5299C48.2817 24.5646 48.3609 24.6984 48.4387 24.8281C48.5164 24.9577 48.5801 25.0667 48.5801 25.0701C48.5801 25.0745 48.5958 25.0991 48.615 25.1268C48.6342 25.1545 48.6499 25.18 48.6499 25.1834C48.6499 25.1877 48.6595 25.2031 48.6713 25.2198C48.6831 25.2364 48.708 25.2779 48.7266 25.3121C48.7452 25.3467 48.7774 25.3998 48.7982 25.4308C48.819 25.4624 48.836 25.4911 48.836 25.4957C48.836 25.5 48.8674 25.5545 48.9058 25.6164C48.9442 25.6784 48.9756 25.7343 48.9756 25.7408C48.9756 25.7474 48.9823 25.7597 48.9905 25.7676C48.9987 25.7759 49.026 25.817 49.0511 25.8591L49.0967 25.9355H53.0062H56.9156L56.9612 25.8589Z" fill="#FFF9E2"/>
<path d="M48.8782 44.8554L56.5938 55.7142H26.0007C23.7915 55.7142 22.0007 53.9233 22.0007 51.7142V45.238L29.3752 38.7512C30.2262 38.0026 31.5285 38.1101 32.2453 38.9879L38.4788 46.6219C39.5135 47.8892 41.3728 48.0937 42.6583 47.0816L46.0107 44.4423C46.9089 43.7352 48.216 43.9235 48.8782 44.8554Z" fill="#FFF9E2"/>
</svg>
